<svg xmlns="http://www.w3.org/2000/svg" width="210.531" height="299.699" viewBox="0 0 210.531 299.699" fill="none">
  <path d="M 0.288 277.601 C 0.11 277.517 0 277.339 0 277.142 L 0 180.96 C 0 180.679 0.228 180.451 0.51 180.451 L 8.512 180.451 C 8.665 180.451 8.811 180.52 8.908 180.639 L 45.858 226.254 C 62.659 247.131 84.191 260.617 106.307 260.617 C 131.196 260.617 141.284 247.82 141.284 232.329 C 141.243 203.979 106.307 195.273 72.643 175.753 C 21.532 146.108 0.667 122.559 0.667 81.433 C 0.667 30.243 45.066 0.013 112.31 0.013 C 139.315 -0.286 166.142 4.414 191.439 13.877 C 191.638 13.951 191.77 14.142 191.77 14.354 L 191.77 104.513 C 191.77 104.795 191.541 105.023 191.26 105.023 L 183.191 105.023 C 183.04 105.023 182.897 104.956 182.8 104.841 L 143.953 58.531 C 131.842 47.09 117.71 39.053 101.576 39.053 C 80.731 39.053 69.954 51.161 69.954 65.316 C 69.954 90.243 98.199 103.708 134.573 121.892 C 186.308 148.133 210.531 172.371 210.531 212.121 C 210.531 266.672 170.196 299.699 100.909 299.699 C 67.392 299.699 25.868 289.649 0.288 277.601 Z" fill="currentColor" fill-rule="nonzero"></path>
  <path d="M 45.858 226.254 L 47.251 225.134 L 47.247 225.129 L 45.858 226.254 Z M 141.284 232.329 L 143.072 232.329 L 143.072 232.326 L 141.284 232.329 Z M 72.643 175.753 L 71.746 177.299 L 71.747 177.3 L 72.643 175.753 Z M 112.31 0.013 L 112.31 1.801 L 112.32 1.801 L 112.33 1.801 L 112.31 0.013 Z M 143.953 58.531 L 145.322 57.382 L 145.255 57.303 L 145.18 57.231 L 143.953 58.531 Z M 134.573 121.892 L 135.381 120.297 L 135.372 120.293 L 134.573 121.892 Z M 191.439 13.877 L 190.813 15.551 L 191.439 13.877 Z M 182.8 104.841 L 184.17 103.692 L 182.8 104.841 Z M 0.288 277.601 L -0.474 279.218 L 0.288 277.601 Z M 0 277.142 L 1.787 277.142 L 1.787 180.96 L 0 180.96 L -1.787 180.96 L -1.787 277.142 L 0 277.142 Z M 0.51 180.451 L 0.51 182.238 L 8.512 182.238 L 8.512 180.451 L 8.512 178.663 L 0.51 178.663 L 0.51 180.451 Z M 8.908 180.639 L 7.519 181.765 L 44.469 227.38 L 45.858 226.254 L 47.247 225.129 L 10.297 179.514 L 8.908 180.639 Z M 45.858 226.254 L 44.466 227.375 C 61.459 248.491 83.453 262.404 106.307 262.404 L 106.307 260.617 L 106.307 258.829 C 84.93 258.829 63.859 245.771 47.251 225.134 L 45.858 226.254 Z M 106.307 260.617 L 106.307 262.404 C 119.044 262.404 128.273 259.128 134.333 253.603 C 140.411 248.063 143.072 240.47 143.072 232.329 L 141.284 232.329 L 139.497 232.329 C 139.497 239.679 137.114 246.23 131.925 250.961 C 126.719 255.707 118.459 258.829 106.307 258.829 L 106.307 260.617 Z M 141.284 232.329 L 143.072 232.326 C 143.05 217.216 133.641 207.484 120.525 199.218 C 113.965 195.083 106.361 191.24 98.364 187.243 C 90.341 183.232 81.899 179.054 73.54 174.207 L 72.643 175.753 L 71.747 177.3 C 80.22 182.213 88.769 186.443 96.765 190.44 C 104.788 194.451 112.233 198.217 118.619 202.242 C 131.397 210.296 139.477 219.092 139.497 232.332 L 141.284 232.329 Z M 72.643 175.753 L 73.54 174.207 C 48.035 159.414 30.282 146.253 18.893 131.793 C 7.564 117.41 2.455 101.643 2.455 81.433 L 0.667 81.433 L -1.12 81.433 C -1.12 102.349 4.203 118.92 16.084 134.005 C 27.905 149.012 46.141 162.448 71.746 177.299 L 72.643 175.753 Z M 0.667 81.433 L 2.455 81.433 C 2.455 56.426 13.266 36.608 32.312 22.981 C 51.421 9.308 78.927 1.801 112.31 1.801 L 112.31 0.013 L 112.31 -1.774 C 78.449 -1.774 50.134 5.833 30.232 20.073 C 10.267 34.358 -1.12 55.249 -1.12 81.433 L 0.667 81.433 Z M 112.31 0.013 L 112.33 1.801 C 139.114 1.504 165.722 6.166 190.813 15.551 L 191.439 13.877 L 192.065 12.203 C 166.562 2.663 139.516 -2.076 112.291 -1.774 L 112.31 0.013 Z M 191.77 14.354 L 189.982 14.354 L 189.982 104.513 L 191.77 104.513 L 193.557 104.513 L 193.557 14.354 L 191.77 14.354 Z M 191.26 105.023 L 191.26 103.236 L 183.191 103.236 L 183.191 105.023 L 183.191 106.811 L 191.26 106.811 L 191.26 105.023 Z M 182.8 104.841 L 184.17 103.692 L 145.322 57.382 L 143.953 58.531 L 142.583 59.68 L 181.431 105.99 L 182.8 104.841 Z M 143.953 58.531 L 145.18 57.231 C 132.889 45.621 118.34 37.265 101.576 37.265 L 101.576 39.053 L 101.576 40.84 C 117.08 40.84 130.794 48.56 142.725 59.83 L 143.953 58.531 Z M 101.576 39.053 L 101.576 37.265 C 90.807 37.265 82.443 40.398 76.749 45.551 C 71.049 50.71 68.167 57.77 68.167 65.316 L 69.954 65.316 L 71.742 65.316 C 71.742 58.707 74.248 52.636 79.148 48.202 C 84.053 43.762 91.499 40.84 101.576 40.84 L 101.576 39.053 Z M 69.954 65.316 L 68.167 65.316 C 68.167 78.589 75.737 88.652 87.547 97.559 C 99.317 106.437 115.653 114.432 133.773 123.49 L 134.573 121.892 L 135.372 120.293 C 117.119 111.168 101.145 103.338 89.7 94.705 C 78.294 86.103 71.742 76.969 71.742 65.316 L 69.954 65.316 Z M 134.573 121.892 L 133.764 123.486 C 159.569 136.575 178.313 149.07 190.607 163.118 C 202.839 177.095 208.743 192.671 208.743 212.121 L 210.531 212.121 L 212.318 212.121 C 212.318 191.821 206.111 175.404 193.298 160.764 C 180.547 146.195 161.312 133.45 135.381 120.297 L 134.573 121.892 Z M 210.531 212.121 L 208.743 212.121 C 208.743 238.916 198.86 260.274 180.582 274.974 C 162.254 289.714 135.294 297.911 100.909 297.911 L 100.909 299.699 L 100.909 301.486 C 135.811 301.486 163.662 293.17 182.823 277.759 C 202.034 262.308 212.318 239.877 212.318 212.121 L 210.531 212.121 Z M 100.909 299.699 L 100.909 297.911 C 67.661 297.911 26.397 287.922 1.05 275.984 L 0.288 277.601 L -0.474 279.218 C 25.339 291.376 67.123 301.486 100.909 301.486 L 100.909 299.699 Z M 191.439 13.877 L 190.813 15.551 C 190.312 15.364 189.982 14.886 189.982 14.354 L 191.77 14.354 L 193.557 14.354 C 193.557 13.397 192.964 12.539 192.065 12.203 L 191.439 13.877 Z M 8.512 180.451 L 8.512 182.238 C 8.126 182.238 7.761 182.064 7.519 181.765 L 8.908 180.639 L 10.297 179.514 C 9.861 178.976 9.205 178.663 8.512 178.663 L 8.512 180.451 Z M 0 180.96 L 1.787 180.96 C 1.787 181.666 1.216 182.238 0.51 182.238 L 0.51 180.451 L 0.51 178.663 C -0.759 178.663 -1.787 179.692 -1.787 180.96 L 0 180.96 Z M 191.77 104.513 L 189.982 104.513 C 189.982 103.808 190.554 103.236 191.26 103.236 L 191.26 105.023 L 191.26 106.811 C 192.528 106.811 193.557 105.782 193.557 104.513 L 191.77 104.513 Z M 183.191 105.023 L 183.191 103.236 C 183.569 103.236 183.927 103.403 184.17 103.692 L 182.8 104.841 L 181.431 105.99 C 181.867 106.51 182.512 106.811 183.191 106.811 L 183.191 105.023 Z M 0 277.142 L -1.787 277.142 C -1.787 278.012 -1.295 278.831 -0.474 279.218 L 0.288 277.601 L 1.05 275.984 C 1.515 276.203 1.787 276.666 1.787 277.142 L 0 277.142 Z" fill="currentColor" fill-rule="nonzero"></path>
</svg>